<svg id="Layer_1" data-name="Layer 1" xmlns="http://www.w3.org/2000/svg" viewBox="0 0 512 512">
  <path d="M197.52,382.17q-47.55,0-95.1,0c-6.78,0-12.47-2.07-16.15-8a16.16,16.16,0,0,1-.4-17.22c3.27-5.78,8.43-8.63,15.3-8.62q93.45.09,186.91,0c2.33,0,4.66,0,7,0a16.85,16.85,0,0,1,2.46,33.48,39.43,39.43,0,0,1-6.15.32Q244.46,382.19,197.52,382.17Zm212-218.4a25.29,25.29,0,0,0,6.51-.61c8.41-2.25,13.27-10.27,12-19.46-1.11-8-8.43-13.82-17.88-13.82q-95.93-.06-191.85,0c-10.75,0-18.25,7.23-18.17,17.1s7.52,16.81,18.36,16.81H314Q361.79,163.8,409.55,163.77Zm-67.11,291c3.42,0,6.86-.17,10.27-.49A126.22,126.22,0,0,0,465.64,309.09C456.18,248.36,403,202.66,341.58,202.6q-80.08-.07-160.16,0c-1.37,0-2.75-.05-4.11.06-11.29.94-18.42,11.33-15.18,22.07,2.27,7.56,8.6,11.82,17.7,11.82q80.08,0,160.16,0c53.59,0,95.32,43.59,93.08,97.13-2,47.18-42.51,86.92-89.61,87.21-53.79.33-107.59.15-161.38.18-39.67,0-79.33-.09-119,.14A22.52,22.52,0,0,0,52,424.45c-6.33,3.89-8.55,11.86-6.22,18.88s8.5,11.46,16.33,11.46q71.85,0,143.69,0Q274.11,454.81,342.44,454.79ZM170.74,57.19C99.38,57.1,41.56,117.13,45,188.59c2,40.64,19.87,73.11,52.58,97.13,21.66,15.91,46.29,23.61,73.16,23.66,53.38.11,106.77,0,160.15,0,1.24,0,2.48,0,3.71-.05,12.28-1,19.59-13.31,14.27-24.31-3.34-6.92-9.2-9.58-16.79-9.56q-80.09.12-160.16,0c-10.78,0-21.39-1.4-31.48-5.34-35.67-13.92-57.15-39.82-60.9-77.9-3.73-37.91,12.07-67.52,44.25-88C139.18,94.5,156.34,91,174.45,91q137.1.14,274.2-.06a22.67,22.67,0,0,0,10.18-2.42c6.82-3.6,9.73-11.63,7.67-19.09S458,57.22,449.88,57.21q-71.83,0-143.69,0Q238.47,57.2,170.74,57.19Z"/>
</svg>
