<?xml version="1.0" standalone="no"?>
<!DOCTYPE svg PUBLIC "-//W3C//DTD SVG 20010904//EN"
 "http://www.w3.org/TR/2001/REC-SVG-20010904/DTD/svg10.dtd">
<svg version="1.0" xmlns="http://www.w3.org/2000/svg"
 width="1024.000000pt" height="1024.000000pt" viewBox="0 0 1024.000000 1024.000000"
 preserveAspectRatio="xMidYMid meet">
<metadata>
Created by potrace 1.11, written by Peter Selinger 2001-2013
</metadata>
<g transform="translate(0.000000,1024.000000) scale(0.100000,-0.100000)"
fill="#000000" stroke="none">
<path d="M7300 9420 c-71 -14 -82 -17 -130 -36 -87 -35 -178 -97 -229 -158
-14 -15 -31 -34 -38 -41 -7 -8 -31 -47 -52 -87 -54 -101 -72 -170 -73 -293 -2
-266 169 -498 432 -588 72 -24 244 -32 320 -13 321 78 522 368 478 691 -34
249 -232 464 -479 519 -49 11 -184 14 -229 6z"/>
<path d="M3397 9374 c-1 -1 -50 -5 -108 -8 -58 -4 -115 -8 -125 -10 -11 -2
-47 -8 -79 -12 -33 -4 -62 -8 -65 -9 -3 -1 -25 -5 -50 -9 -128 -22 -347 -84
-480 -136 -30 -11 -64 -24 -75 -27 -11 -4 -88 -41 -170 -82 -727 -368 -1254
-1043 -1454 -1866 -17 -66 -32 -136 -35 -155 -3 -19 -8 -46 -11 -60 -3 -14 -8
-45 -11 -70 -3 -25 -7 -56 -10 -70 -26 -161 -24 -728 5 -940 17 -127 20 -141
45 -255 23 -98 24 -101 41 -164 75 -261 219 -569 378 -806 57 -85 132 -188
160 -217 6 -7 37 -43 67 -78 169 -200 416 -408 672 -568 97 -61 316 -172 418
-212 139 -56 384 -132 470 -146 14 -3 39 -7 55 -11 17 -4 35 -8 40 -9 34 -7
232 -34 294 -39 41 -4 946 -7 2011 -7 1797 0 1939 1 1963 17 44 29 60 64 63
140 1 38 -2 93 -7 120 -6 28 -12 61 -15 75 -42 217 -182 427 -379 571 -133 97
-396 206 -565 234 -19 3 -42 8 -50 10 -8 2 -31 7 -50 10 -19 3 -46 8 -60 10
-30 6 -75 12 -155 21 -33 3 -71 8 -85 10 -77 12 -439 17 -1430 19 -608 1
-1114 4 -1125 7 -11 3 -42 9 -68 12 -90 13 -209 43 -310 77 -88 30 -323 145
-372 182 -5 4 -48 35 -94 69 -99 73 -247 215 -324 313 -690 877 -401 2160 598
2653 206 102 376 149 631 176 28 3 456 8 950 12 494 3 955 7 1024 8 175 4 290
35 415 110 187 114 323 312 361 527 8 49 12 140 11 255 -3 197 -9 222 -70 273
-65 55 15 52 -1465 54 -756 1 -1374 1 -1375 1z"/>
<path d="M2852 6723 c-45 -15 -60 -31 -77 -79 -13 -37 -13 -135 0 -194 3 -14
10 -45 15 -70 45 -221 186 -433 382 -573 201 -144 545 -253 889 -283 30 -2 66
-7 80 -11 13 -3 382 -8 819 -10 1252 -5 1722 -10 1760 -17 171 -34 235 -50
325 -80 405 -136 757 -427 966 -801 144 -257 221 -549 222 -840 2 -296 -50
-518 -183 -790 -60 -122 -97 -182 -193 -310 -26 -35 -101 -118 -137 -153 -166
-158 -306 -257 -481 -340 -80 -38 -232 -95 -282 -107 -292 -67 -197 -62 -1417
-70 -509 -3 -950 -8 -980 -11 -282 -26 -537 -219 -640 -485 -48 -125 -56 -184
-55 -404 1 -154 4 -174 23 -212 23 -45 68 -84 117 -103 56 -22 2889 -16 2999
6 12 2 44 7 73 9 28 3 84 12 125 21 40 8 87 17 103 20 53 9 267 74 365 110
124 46 337 150 453 221 530 326 945 839 1162 1438 26 72 49 137 51 145 2 8 15
56 29 105 14 50 27 99 29 110 22 110 46 249 50 285 11 93 17 147 21 210 5 70
5 351 0 465 -5 115 -15 268 -20 295 -2 14 -6 43 -10 65 -41 283 -142 593 -283
870 -144 283 -309 506 -551 745 -267 263 -550 454 -891 600 -178 76 -407 149
-545 174 -152 28 -244 42 -362 53 -32 3 -926 6 -1987 7 -1471 1 -1938 -2
-1964 -11z"/>
<path d="M2725 1948 c-100 -10 -150 -24 -234 -66 -168 -85 -300 -272 -326
-462 -52 -381 252 -719 636 -704 260 9 480 176 563 425 49 146 39 321 -25 451
-119 244 -358 382 -614 356z"/>
</g>
</svg>
